<svg id="Capa_1" enable-background="new 0 0 512 512" height="512" viewBox="0 0 512 512" width="512" xmlns="http://www.w3.org/2000/svg"><g><g><path d="m501.347 492h-12.879v-318.953c0-4.435-2.887-8.194-6.883-9.504l-219.659-161.598c-3.524-2.593-8.327-2.593-11.852 0l-219.659 161.598c-3.996 1.31-6.883 5.069-6.883 9.504v318.953h-12.879c-5.523 0-10 4.477-10 10s4.477 10 10 10h490.693c5.522 0 10-4.477 10-10s-4.477-10-9.999-10zm-219.661-108.021h-50.995c-.012 0-.025 0-.037 0h-4.292v-32.791h59.331v32.791h-3.971c-.011.001-.023 0-.036 0zm-238.154-158.926c7.664 5.407 17.006 8.587 27.078 8.587 6.16 0 12.046-1.19 17.443-3.351 2.903 9.268 4.233 18.952 4.233 30.318 0 31.668-10.78 60.127-26.466 70.582h-22.288zm128.312-42.006v3.515c0 14.931-12.147 27.078-27.078 27.078s-27.078-12.147-27.078-27.078v-3.515zm74.156 0v3.515c0 14.931-12.147 27.078-27.078 27.078s-27.078-12.147-27.078-27.078v-3.515zm74.156 0v3.515c0 14.931-12.147 27.078-27.078 27.078s-27.078-12.147-27.078-27.078v-3.515zm74.155 0v3.515c0 14.931-12.147 27.078-27.078 27.078s-27.077-12.147-27.077-27.078v-3.515zm74.157 0v3.515c0 14.931-12.147 27.078-27.078 27.078s-27.078-12.147-27.078-27.078v-3.515zm-48.755 77.56c0-11.365 1.33-21.05 4.233-30.318 5.397 2.161 11.284 3.351 17.444 3.351 10.072 0 19.414-3.18 27.078-8.587v106.136h-22.289c-15.686-10.454-26.466-38.913-26.466-70.582zm-151.856 70.582h-23.336c-15.686-10.454-26.466-38.913-26.466-70.582 0-10.819 1.248-18.779 3.338-27.032 14.031-.729 26.457-7.631 34.606-18.035 8.223 10.499 20.801 17.431 34.99 18.053 2.087 8.24 3.333 16.2 3.333 27.014 0 31.669-10.779 60.128-26.465 70.582zm-170.169-144.627c0 14.931-12.147 27.078-27.078 27.078s-27.078-12.147-27.078-27.078v-3.515h54.156zm-54.156 164.627h40.447v32.791h-40.447zm54.531 51.92c3.487-1.562 5.915-5.062 5.915-9.13v-52.791c0-5.523-4.477-10-10-10h-.866c11.943-17.485 19.174-42.942 19.174-70.582 0-15.61-2.283-29.131-7.144-42.081.888-.959 1.738-1.955 2.545-2.986 8.625 11.011 22.039 18.1 37.078 18.1s28.453-7.089 37.078-18.1c5.117 6.533 11.921 11.685 19.749 14.795-2.178 9.012-3.538 18.235-3.538 30.272 0 27.639 7.231 53.096 19.174 70.582h-.866c-5.523 0-10 4.477-10 10v52.791c0 4.068 2.429 7.568 5.915 9.13-9.069 16.954-14.223 39.068-14.223 62.499 0 9.052.748 17.884 2.231 26.391h-90.231c1.482-8.506 2.231-17.339 2.231-26.391.001-23.431-5.152-45.545-14.222-62.499zm201.973-.119c3.348-1.616 5.658-5.044 5.658-9.011v-52.791c0-5.523-4.478-10-10-10h-.545c11.943-17.485 19.173-42.942 19.173-70.582 0-12.1-1.372-21.36-3.57-30.411 7.683-3.123 14.362-8.219 19.404-14.656 8.625 11.011 22.039 18.1 37.077 18.1 15.039 0 28.453-7.089 37.078-18.1.807 1.031 1.657 2.027 2.545 2.986-4.861 12.951-7.144 26.47-7.144 42.081 0 27.639 7.231 53.096 19.174 70.582h-.867c-5.522 0-10 4.477-10 10v52.791c0 4.068 2.429 7.568 5.916 9.13-9.069 16.954-14.223 39.067-14.223 62.499 0 9.051.749 17.884 2.231 26.391h-89.852c1.482-8.506 2.23-17.339 2.23-26.391.001-23.486-5.176-45.648-14.285-62.618zm127.984-19.011v-32.791h40.447v32.791zm-339.771-238.154c.569.1 1.154.153 1.751.153h120.794c5.523 0 10-4.477 10-10s-4.477-10-10-10h-95.567l140.773-103.564 140.773 103.564h-95.567c-5.522 0-10 4.477-10 10s4.478 10 10 10h120.794c.597 0 1.182-.053 1.751-.153l23.409 17.222h-382.321zm-44.717 346.175v-88.021h31.445c10.751 14.073 17.31 37.171 17.31 61.629 0 9.137-.867 17.982-2.583 26.391h-46.172zm177.106 0c-1.716-8.41-2.583-17.255-2.583-26.391 0-24.457 6.558-47.556 17.31-61.629h41.648c10.751 14.073 17.309 37.171 17.309 61.629 0 9.137-.867 17.982-2.582 26.391zm201.658 0c-1.716-8.411-2.583-17.256-2.583-26.391 0-24.458 6.559-47.557 17.311-61.629h31.444v88.02z"/><g><g><g><path d="m256.18 145.98c-4.24 0-8.098-2.787-9.46-6.789-1.326-3.896-.062-8.324 3.116-10.94 3.263-2.685 8.031-2.987 11.62-.766 3.496 2.164 5.346 6.412 4.534 10.445-.928 4.612-5.095 8.05-9.81 8.05z"/></g></g></g></g></g></svg>