<?xml version="1.0"?>
<svg xmlns="http://www.w3.org/2000/svg" xmlns:xlink="http://www.w3.org/1999/xlink" xmlns:svgjs="http://svgjs.com/svgjs" version="1.1" width="512" height="512" x="0" y="0" viewBox="0 0 480 480" style="enable-background:new 0 0 512 512" xml:space="preserve" class=""><g transform="matrix(-1,-1.2246467991473532e-16,1.2246467991473532e-16,-1,479.99999999999994,480.0000000000001)">
<g xmlns="http://www.w3.org/2000/svg">
	
		<linearGradient id="SVGID_1_" gradientUnits="userSpaceOnUse" x1="-26.875" y1="559.315" x2="-26.875" y2="617.933" gradientTransform="matrix(8 0 0 -8 455 4941)"><stop stop-opacity="1" stop-color="#b11bbb" offset="0"/><stop stop-opacity="1" stop-color="#a0168f" offset="0.28185328185328185"/></linearGradient>
	<path style="fill:url(#SVGID_1_);" d="M240,480C107.452,480,0,372.548,0,240S107.452,0,240,0s240,107.452,240,240   C479.85,372.486,372.486,479.85,240,480z M240,16C116.288,16,16,116.288,16,240s100.288,224,224,224s224-100.288,224-224   C463.859,116.347,363.653,16.141,240,16z" fill=""/>
	
		<linearGradient id="SVGID_2_" gradientUnits="userSpaceOnUse" x1="-26.8627" y1="559.315" x2="-26.8627" y2="617.933" gradientTransform="matrix(8 0 0 -8 455 4941)"><stop stop-opacity="1" stop-color="#42445a" offset="0"/><stop stop-opacity="0" stop-color="#f900ff" offset="0.3127413127413127"/></linearGradient>
	<path style="fill:url(#SVGID_2_);" d="M240,320c-2.122,0-4.156-0.844-5.656-2.344L98.576,181.888   c-3.069-3.178-2.981-8.243,0.197-11.312c3.1-2.994,8.015-2.994,11.115,0L240,300.688l130.112-130.112   c3.069-3.178,8.134-3.266,11.312-0.196c3.178,3.069,3.266,8.134,0.196,11.312c-0.064,0.067-0.13,0.132-0.196,0.196L245.656,317.656   C244.156,319.156,242.122,320,240,320z" fill=""/>
</g>
<g xmlns="http://www.w3.org/2000/svg">
</g>
<g xmlns="http://www.w3.org/2000/svg">
</g>
<g xmlns="http://www.w3.org/2000/svg">
</g>
<g xmlns="http://www.w3.org/2000/svg">
</g>
<g xmlns="http://www.w3.org/2000/svg">
</g>
<g xmlns="http://www.w3.org/2000/svg">
</g>
<g xmlns="http://www.w3.org/2000/svg">
</g>
<g xmlns="http://www.w3.org/2000/svg">
</g>
<g xmlns="http://www.w3.org/2000/svg">
</g>
<g xmlns="http://www.w3.org/2000/svg">
</g>
<g xmlns="http://www.w3.org/2000/svg">
</g>
<g xmlns="http://www.w3.org/2000/svg">
</g>
<g xmlns="http://www.w3.org/2000/svg">
</g>
<g xmlns="http://www.w3.org/2000/svg">
</g>
<g xmlns="http://www.w3.org/2000/svg">
</g>
</g></svg>
